<svg width="50" height="50" viewBox="0 0 50 50" fill="none" xmlns="http://www.w3.org/2000/svg">
<path d="M43.1624 21.9299C43.162 21.4497 42.8127 21.0408 42.3384 20.9657L39.9129 20.5814L38.6638 17.569L40.1057 15.5811C40.3877 15.1925 40.3451 14.6564 40.0055 14.317L35.672 9.9865C35.3322 9.64695 34.796 9.60496 34.4078 9.88718L32.4218 11.3299L29.4071 10.0825L29.0212 7.65828C28.9457 7.18425 28.5368 6.83533 28.0567 6.83533H25C24.4607 6.83533 24.0234 7.27253 24.0234 7.81189C24.0234 8.35124 24.4607 8.78845 25 8.78845H27.2234L27.5643 10.9295C27.6177 11.2649 27.8415 11.5484 28.1554 11.6783L32.1802 13.3436C32.494 13.4734 32.8528 13.4309 33.1274 13.2313L34.8812 11.9574L38.0353 15.1093L36.7619 16.8648C36.5625 17.1397 36.5202 17.4985 36.6503 17.8123L38.3183 21.8345C38.4483 22.1482 38.732 22.3718 39.0676 22.425L41.2096 22.7643L41.2114 27.2233L39.0708 27.5641C38.7353 27.6176 38.4519 27.8414 38.322 28.1552L36.6565 32.18C36.5267 32.4938 36.5691 32.8526 36.7687 33.1273L38.0428 34.881L34.891 38.035L33.1354 36.7618C32.8604 36.5624 32.5017 36.5201 32.188 36.6502L28.1657 38.318C27.852 38.4481 27.6283 38.7319 27.5752 39.0674L27.2357 41.2102H25C24.4607 41.2102 24.0234 41.6475 24.0234 42.1868C24.0234 42.726 24.4607 43.1634 25 43.1634H28.0698C28.5502 43.1634 28.9592 42.814 29.0344 42.3395L29.4187 39.9127L32.4313 38.6635L34.4191 40.1054C34.8077 40.3874 35.3438 40.345 35.6832 40.0052L40.0137 35.6718C40.3532 35.3321 40.3952 34.7961 40.1131 34.4077L38.6703 32.4217L39.9178 29.407L42.3419 29.0211C42.8161 28.9456 43.1651 28.5364 43.1649 28.0562L43.1624 21.9299Z" fill="#FFBB01"/>
<path d="M24.991 31.3898C24.4557 31.3945 24.0233 31.83 24.0233 32.3664C24.0233 32.9057 24.4606 33.343 24.9999 33.343C25.0124 33.343 25.0325 33.3426 25.0451 33.3421C25.5841 33.3214 26.0041 32.8678 25.9833 32.3287C25.9629 31.7969 25.5193 31.3837 24.991 31.3898Z" fill="#FFBB01"/>
<path d="M24.9999 16.6571C24.4606 16.6571 24.0233 17.0943 24.0233 17.6337C24.0233 18.173 24.4606 18.6102 24.9999 18.6102C28.5232 18.6102 31.3897 21.4767 31.3897 25.0001C31.3897 27.3782 30.0816 29.5455 27.976 30.6561C27.4989 30.9077 27.3161 31.4984 27.5678 31.9755C27.7427 32.3072 28.0816 32.4966 28.4324 32.4966C28.5859 32.4966 28.7419 32.4603 28.8871 32.3837C31.6355 30.9341 33.3428 28.1049 33.3428 25.0001C33.3428 20.3998 29.6003 16.6571 24.9999 16.6571Z" fill="#FFBB01"/>
<path d="M5.66406 43.3594H0.976562C0.437305 43.3594 0 43.7967 0 44.3359V49.0234C0 49.5627 0.437305 50 0.976562 50H5.66406C6.20332 50 6.64062 49.5627 6.64062 49.0234V44.3359C6.64062 43.7967 6.20332 43.3594 5.66406 43.3594ZM4.6875 48.0469H1.95312V45.3125H4.6875V48.0469Z" fill="#FFBB01"/>
<path d="M49.0234 43.3594H44.3359C43.7967 43.3594 43.3594 43.7967 43.3594 44.3359V49.0234C43.3594 49.5627 43.7967 50 44.3359 50H49.0234C49.5627 50 50 49.5627 50 49.0234V44.3359C50 43.7967 49.5627 43.3594 49.0234 43.3594ZM48.0469 48.0469H45.3125V45.3125H48.0469V48.0469Z" fill="#FFBB01"/>
<path d="M5.66406 0H0.976562C0.437305 0 0 0.437207 0 0.976562V5.66406C0 6.20342 0.437305 6.64062 0.976562 6.64062H5.66406C6.20332 6.64062 6.64062 6.20342 6.64062 5.66406V0.976562C6.64062 0.437207 6.20332 0 5.66406 0ZM4.6875 4.6875H1.95312V1.95312H4.6875V4.6875Z" fill="#FFBB01"/>
<path d="M49.0234 0H44.3359C43.7967 0 43.3594 0.437207 43.3594 0.976562V5.66406C43.3594 6.20342 43.7967 6.64062 44.3359 6.64062H49.0234C49.5627 6.64062 50 6.20342 50 5.66406V0.976562C50 0.437207 49.5627 0 49.0234 0ZM48.0469 4.6875H45.3125V1.95312H48.0469V4.6875Z" fill="#FFBB01"/>
<path d="M46.6797 37.8488C46.1404 37.8488 45.7031 38.2861 45.7031 38.8253V39.8019C45.7031 40.3411 46.1404 40.7784 46.6797 40.7784C47.2189 40.7784 47.6562 40.3411 47.6562 39.8019V38.8253C47.6562 38.2861 47.2189 37.8488 46.6797 37.8488Z" fill="#FFBB01"/>
<path d="M46.6797 32.9659C46.1404 32.9659 45.7031 33.4032 45.7031 33.9424V34.919C45.7031 35.4583 46.1404 35.8956 46.6797 35.8956C47.2189 35.8956 47.6562 35.4583 47.6562 34.919V33.9424C47.6562 33.4032 47.2189 32.9659 46.6797 32.9659Z" fill="#FFBB01"/>
<path d="M46.6797 9.37744C46.1404 9.37744 45.7031 9.81465 45.7031 10.354V10.505C45.7031 11.0443 46.1404 11.4815 46.6797 11.4815C47.2189 11.4815 47.6562 11.0443 47.6562 10.505V10.354C47.6562 9.81465 47.2189 9.37744 46.6797 9.37744Z" fill="#FFBB01"/>
<path d="M46.6797 28.0831C46.1404 28.0831 45.7031 28.5204 45.7031 29.0597V30.0363C45.7031 30.5755 46.1404 31.0128 46.6797 31.0128C47.2189 31.0128 47.6562 30.5755 47.6562 30.0363V29.0597C47.6562 28.5204 47.2189 28.0831 46.6797 28.0831Z" fill="#FFBB01"/>
<path d="M46.6797 13.4346C46.1404 13.4346 45.7031 13.8718 45.7031 14.4112V15.3878C45.7031 15.9271 46.1404 16.3643 46.6797 16.3643C47.2189 16.3643 47.6562 15.9271 47.6562 15.3878V14.4112C47.6562 13.8718 47.2189 13.4346 46.6797 13.4346Z" fill="#FFBB01"/>
<path d="M46.6797 23.2003C46.1404 23.2003 45.7031 23.6375 45.7031 24.1769V25.1534C45.7031 25.6927 46.1404 26.13 46.6797 26.13C47.2189 26.13 47.6562 25.6927 47.6562 25.1534V24.1769C47.6562 23.6375 47.2189 23.2003 46.6797 23.2003Z" fill="#FFBB01"/>
<path d="M46.6797 18.3175C46.1404 18.3175 45.7031 18.7547 45.7031 19.2941V20.2706C45.7031 20.81 46.1404 21.2472 46.6797 21.2472C47.2189 21.2472 47.6562 20.81 47.6562 20.2706V19.2941C47.6562 18.7547 47.2189 18.3175 46.6797 18.3175Z" fill="#FFBB01"/>
<path d="M3.32031 23.2003C2.78105 23.2003 2.34375 23.6375 2.34375 24.1769V25.1534C2.34375 25.6927 2.78105 26.13 3.32031 26.13C3.85957 26.13 4.29688 25.6927 4.29688 25.1534V24.1769C4.29688 23.6375 3.85957 23.2003 3.32031 23.2003Z" fill="#FFBB01"/>
<path d="M3.32031 28.0831C2.78105 28.0831 2.34375 28.5204 2.34375 29.0597V30.0363C2.34375 30.5755 2.78105 31.0128 3.32031 31.0128C3.85957 31.0128 4.29688 30.5755 4.29688 30.0363V29.0597C4.29688 28.5204 3.85957 28.0831 3.32031 28.0831Z" fill="#FFBB01"/>
<path d="M3.32031 9.37744C2.78105 9.37744 2.34375 9.81465 2.34375 10.354V10.505C2.34375 11.0443 2.78105 11.4815 3.32031 11.4815C3.85957 11.4815 4.29688 11.0443 4.29688 10.505V10.354C4.29688 9.81465 3.85957 9.37744 3.32031 9.37744Z" fill="#FFBB01"/>
<path d="M3.32031 18.3175C2.78105 18.3175 2.34375 18.7547 2.34375 19.2941V20.2706C2.34375 20.81 2.78105 21.2472 3.32031 21.2472C3.85957 21.2472 4.29688 20.81 4.29688 20.2706V19.2941C4.29688 18.7547 3.85957 18.3175 3.32031 18.3175Z" fill="#FFBB01"/>
<path d="M3.32031 32.9659C2.78105 32.9659 2.34375 33.4032 2.34375 33.9424V34.919C2.34375 35.4583 2.78105 35.8956 3.32031 35.8956C3.85957 35.8956 4.29688 35.4583 4.29688 34.919V33.9424C4.29688 33.4032 3.85957 32.9659 3.32031 32.9659Z" fill="#FFBB01"/>
<path d="M3.32031 13.4346C2.78105 13.4346 2.34375 13.8718 2.34375 14.4112V15.3878C2.34375 15.9271 2.78105 16.3643 3.32031 16.3643C3.85957 16.3643 4.29688 15.9271 4.29688 15.3878V14.4112C4.29688 13.8718 3.85957 13.4346 3.32031 13.4346Z" fill="#FFBB01"/>
<path d="M3.32031 37.8488C2.78105 37.8488 2.34375 38.2861 2.34375 38.8253V39.8019C2.34375 40.3411 2.78105 40.7784 3.32031 40.7784C3.85957 40.7784 4.29688 40.3411 4.29688 39.8019V38.8253C4.29688 38.2861 3.85957 37.8488 3.32031 37.8488Z" fill="#FFBB01"/>
<path d="M30.7841 45.7811H29.8075C29.2682 45.7811 28.8309 46.2184 28.8309 46.7576C28.8309 47.2969 29.2682 47.7342 29.8075 47.7342H30.7841C31.3233 47.7342 31.7606 47.2969 31.7606 46.7576C31.7606 46.2184 31.3233 45.7811 30.7841 45.7811Z" fill="#FFBB01"/>
<path d="M21.0183 45.7811H20.0417C19.5025 45.7811 19.0652 46.2184 19.0652 46.7576C19.0652 47.2969 19.5025 47.7342 20.0417 47.7342H21.0183C21.5576 47.7342 21.9949 47.2969 21.9949 46.7576C21.9949 46.2184 21.5576 45.7811 21.0183 45.7811Z" fill="#FFBB01"/>
<path d="M25.9011 45.7811H24.9246C24.3853 45.7811 23.948 46.2184 23.948 46.7576C23.948 47.2969 24.3853 47.7342 24.9246 47.7342H25.9011C26.4404 47.7342 26.8777 47.2969 26.8777 46.7576C26.8777 46.2184 26.4404 45.7811 25.9011 45.7811Z" fill="#FFBB01"/>
<path d="M16.1356 45.7811H15.1591C14.6198 45.7811 14.1825 46.2184 14.1825 46.7576C14.1825 47.2969 14.6198 47.7342 15.1591 47.7342H16.1356C16.6749 47.7342 17.1122 47.2969 17.1122 46.7576C17.1122 46.2184 16.6749 45.7811 16.1356 45.7811Z" fill="#FFBB01"/>
<path d="M35.6667 45.7811H34.6902C34.1509 45.7811 33.7136 46.2184 33.7136 46.7576C33.7136 47.2969 34.1509 47.7342 34.6902 47.7342H35.6667C36.206 47.7342 36.6433 47.2969 36.6433 46.7576C36.6433 46.2184 36.206 45.7811 35.6667 45.7811Z" fill="#FFBB01"/>
<path d="M11.2528 45.7811H10.2762C9.73699 45.7811 9.29968 46.2184 9.29968 46.7576C9.29968 47.2969 9.73699 47.7342 10.2762 47.7342H11.2528C11.7921 47.7342 12.2294 47.2969 12.2294 46.7576C12.2294 46.2184 11.7921 45.7811 11.2528 45.7811Z" fill="#FFBB01"/>
<path d="M39.7239 45.7811H39.573C39.0337 45.7811 38.5964 46.2184 38.5964 46.7576C38.5964 47.2969 39.0337 47.7342 39.573 47.7342H39.7239C40.2631 47.7342 40.7004 47.2969 40.7004 46.7576C40.7004 46.2184 40.2632 45.7811 39.7239 45.7811Z" fill="#FFBB01"/>
<path d="M30.7841 2.42169H29.8075C29.2682 2.42169 28.8309 2.8589 28.8309 3.39825C28.8309 3.93761 29.2681 4.37482 29.8075 4.37482H30.7841C31.3233 4.37482 31.7606 3.93761 31.7606 3.39825C31.7606 2.8589 31.3233 2.42169 30.7841 2.42169Z" fill="#FFBB01"/>
<path d="M25.9011 2.42169H24.9246C24.3853 2.42169 23.948 2.8589 23.948 3.39825C23.948 3.93761 24.3852 4.37482 24.9246 4.37482H25.9011C26.4404 4.37482 26.8777 3.93761 26.8777 3.39825C26.8777 2.8589 26.4404 2.42169 25.9011 2.42169Z" fill="#FFBB01"/>
<path d="M39.7239 2.42169H39.573C39.0337 2.42169 38.5964 2.8589 38.5964 3.39825C38.5964 3.93761 39.0336 4.37482 39.573 4.37482H39.7239C40.2631 4.37482 40.7004 3.93761 40.7004 3.39825C40.7004 2.8589 40.2631 2.42169 39.7239 2.42169Z" fill="#FFBB01"/>
<path d="M35.6667 2.42169H34.6902C34.1509 2.42169 33.7136 2.8589 33.7136 3.39825C33.7136 3.93761 34.1508 4.37482 34.6902 4.37482H35.6667C36.206 4.37482 36.6433 3.93761 36.6433 3.39825C36.6433 2.8589 36.206 2.42169 35.6667 2.42169Z" fill="#FFBB01"/>
<path d="M21.0183 2.42169H20.0417C19.5025 2.42169 19.0652 2.8589 19.0652 3.39825C19.0652 3.93761 19.5024 4.37482 20.0417 4.37482H21.0183C21.5576 4.37482 21.9949 3.93761 21.9949 3.39825C21.9949 2.8589 21.5576 2.42169 21.0183 2.42169Z" fill="#FFBB01"/>
<path d="M16.1356 2.42169H15.1591C14.6198 2.42169 14.1825 2.8589 14.1825 3.39825C14.1825 3.93761 14.6197 4.37482 15.1591 4.37482H16.1356C16.6749 4.37482 17.1122 3.93761 17.1122 3.39825C17.1122 2.8589 16.6749 2.42169 16.1356 2.42169Z" fill="#FFBB01"/>
<path d="M11.2528 2.42169H10.2762C9.73699 2.42169 9.29968 2.8589 9.29968 3.39825C9.29968 3.93761 9.73699 4.37482 10.2762 4.37482H11.2528C11.7921 4.37482 12.2294 3.93761 12.2294 3.39825C12.2294 2.8589 11.7921 2.42169 11.2528 2.42169Z" fill="#FFBB01"/>
<path d="M15.5469 21.2822C15.3652 21.1006 15.1133 20.9961 14.8564 20.9961C14.5986 20.9961 14.3477 21.1006 14.166 21.2822C13.9834 21.4639 13.8799 21.7148 13.8799 21.9727C13.8799 22.2295 13.9834 22.4814 14.166 22.6631C14.3477 22.8447 14.5986 22.9492 14.8564 22.9492C15.1133 22.9492 15.3652 22.8447 15.5469 22.6631C15.7284 22.4814 15.833 22.2295 15.833 21.9727C15.833 21.7158 15.7285 21.4639 15.5469 21.2822Z" fill="#FFBB01"/>
<path d="M19.9901 6.36407H15.9722C14.8184 6.36407 13.8795 7.30284 13.8795 8.45675V18.5873C13.8795 19.1267 14.3168 19.5639 14.8561 19.5639C15.3953 19.5639 15.8326 19.1267 15.8326 18.5873V14.3441H20.1295V34.0675H15.8326V25.7813C15.8326 25.242 15.3953 24.8047 14.8561 24.8047C14.3168 24.8047 13.8795 25.242 13.8795 25.7813V35.0441C13.8795 35.1788 13.9073 35.312 13.9614 35.4355L17.0864 42.5783C17.2419 42.9339 17.5931 43.1635 17.9811 43.1635C18.3691 43.1635 18.7202 42.9338 18.8757 42.5783L22.0007 35.4355C22.0548 35.312 22.0826 35.1788 22.0826 35.0441V8.45675C22.0827 7.30284 21.144 6.36407 19.9901 6.36407ZM17.9812 39.7504L16.3493 36.0206H19.6129L17.9812 39.7504ZM20.1297 12.3909H15.8327V12.3908V8.45675C15.8327 8.3798 15.8953 8.3172 15.9723 8.3172H19.9902C20.0671 8.3172 20.1297 8.3798 20.1297 8.45675V12.3909Z" fill="#FFBB01"/>
</svg>
