<svg width="50" height="50" viewBox="0 0 50 50" fill="none" xmlns="http://www.w3.org/2000/svg">
<path d="M34.375 18.75H37.5V29.6875C37.5 29.6984 37.5055 29.707 37.5062 29.718C37.5075 29.8069 37.5242 29.8949 37.5555 29.9781L38.8055 33.1031L40.6805 37.7906C40.7383 37.9359 40.8384 38.0604 40.9678 38.1481C41.0972 38.2358 41.2499 38.2827 41.4062 38.2827C41.5626 38.2827 41.7153 38.2358 41.8447 38.1481C41.9741 38.0604 42.0742 37.9359 42.132 37.7906L44.007 33.1031L45.257 29.9781C45.2884 29.8946 45.305 29.8064 45.3063 29.7172C45.3063 29.707 45.3125 29.6984 45.3125 29.6875V16.4062C45.3125 16.199 45.2302 16.0003 45.0837 15.8538C44.9372 15.7073 44.7385 15.625 44.5312 15.625C44.324 15.625 44.1253 15.7073 43.9788 15.8538C43.8323 16.0003 43.75 16.199 43.75 16.4062V28.9062H42.1875V10.9375H43.75V13.2812C43.75 13.4884 43.8323 13.6872 43.9788 13.8337C44.1253 13.9802 44.324 14.0625 44.5312 14.0625C44.7385 14.0625 44.9372 13.9802 45.0837 13.8337C45.2302 13.6872 45.3125 13.4884 45.3125 13.2812V5.46875C45.3125 4.43275 44.9009 3.43918 44.1684 2.70661C43.4358 1.97405 42.4423 1.5625 41.4062 1.5625C40.3702 1.5625 39.3767 1.97405 38.6441 2.70661C37.9116 3.43918 37.5 4.43275 37.5 5.46875V17.1875H34.375C34.1678 17.1875 33.9691 17.2698 33.8226 17.4163C33.6761 17.5628 33.5938 17.7615 33.5938 17.9687C33.5938 18.1759 33.6761 18.3747 33.8226 18.5212C33.9691 18.6677 34.1678 18.75 34.375 18.75ZM40.6852 33.5937H42.1273L41.4062 35.3969L40.6852 33.5937ZM42.7523 32.0312H40.0602L39.4352 30.4687H43.3773L42.7523 32.0312ZM40.625 28.9062H39.0625V10.9375H40.625V28.9062ZM39.0625 9.375V7.8125H43.75V9.375H39.0625ZM39.0625 5.46875C39.0625 4.84715 39.3094 4.25101 39.749 3.81147C40.1885 3.37193 40.7846 3.125 41.4062 3.125C42.0279 3.125 42.624 3.37193 43.0635 3.81147C43.5031 4.25101 43.75 4.84715 43.75 5.46875V6.25H39.0625V5.46875Z" fill="#FFBB01"/>
<path d="M47.6562 17.1875C47.449 17.1875 47.2503 17.2698 47.1038 17.4163C46.9573 17.5628 46.875 17.7615 46.875 17.9688V46.875H21.875C21.6678 46.875 21.4691 46.9573 21.3226 47.1038C21.1761 47.2503 21.0938 47.449 21.0938 47.6562C21.0938 47.8635 21.1761 48.0622 21.3226 48.2087C21.4691 48.3552 21.6678 48.4375 21.875 48.4375H47.6562C47.8635 48.4375 48.0622 48.3552 48.2087 48.2087C48.3552 48.0622 48.4375 47.8635 48.4375 47.6562V17.9688C48.4375 17.7615 48.3552 17.5628 48.2087 17.4163C48.0622 17.2698 47.8635 17.1875 47.6562 17.1875Z" fill="#FFBB01"/>
<path d="M18.75 46.875H3.125V18.75H5.46875V23.4375C5.46875 23.6447 5.55106 23.8434 5.69757 23.9899C5.84409 24.1364 6.0428 24.2188 6.25 24.2188H20.3125C20.5197 24.2188 20.7184 24.1364 20.8649 23.9899C21.0114 23.8434 21.0938 23.6447 21.0938 23.4375C21.0938 23.2303 21.0114 23.0316 20.8649 22.8851C20.7184 22.7386 20.5197 22.6562 20.3125 22.6562H11.6563C11.4867 21.4899 10.9448 20.4095 10.1114 19.5761C9.27798 18.7427 8.19761 18.2008 7.03125 18.0312V13.2188C8.19761 13.0492 9.27798 12.5073 10.1114 11.6739C10.9448 10.8405 11.4867 9.76011 11.6563 8.59375H13.2812C13.4885 8.59375 13.6872 8.51144 13.8337 8.36493C13.9802 8.21841 14.0625 8.0197 14.0625 7.8125C14.0625 7.6053 13.9802 7.40659 13.8337 7.26007C13.6872 7.11356 13.4885 7.03125 13.2812 7.03125H6.25C6.0428 7.03125 5.84409 7.11356 5.69757 7.26007C5.55106 7.40659 5.46875 7.6053 5.46875 7.8125V17.1875H2.34375C2.13655 17.1875 1.93784 17.2698 1.79132 17.4163C1.64481 17.5628 1.5625 17.7615 1.5625 17.9688V47.6562C1.5625 47.8635 1.64481 48.0622 1.79132 48.2087C1.93784 48.3552 2.13655 48.4375 2.34375 48.4375H18.75C18.9572 48.4375 19.1559 48.3552 19.3024 48.2087C19.4489 48.0622 19.5312 47.8635 19.5312 47.6562C19.5312 47.449 19.4489 47.2503 19.3024 47.1038C19.1559 46.9573 18.9572 46.875 18.75 46.875ZM10.0781 22.6562H7.03125V19.6094C7.78127 19.764 8.46955 20.135 9.01105 20.6765C9.55254 21.2179 9.92352 21.9062 10.0781 22.6562V22.6562ZM10.0781 8.59375C9.92352 9.34377 9.55254 10.0321 9.01105 10.5735C8.46955 11.115 7.78127 11.486 7.03125 11.6406V8.59375H10.0781Z" fill="#FFBB01"/>
<path d="M16.4062 8.59375H25.8438C26.0133 9.76011 26.5552 10.8405 27.3886 11.6739C28.222 12.5073 29.3024 13.0492 30.4688 13.2188V18.0312C29.3024 18.2008 28.222 18.7427 27.3886 19.5761C26.5552 20.4095 26.0133 21.4899 25.8438 22.6562H23.4375C23.2303 22.6562 23.0316 22.7386 22.8851 22.8851C22.7386 23.0316 22.6562 23.2303 22.6562 23.4375C22.6562 23.6447 22.7386 23.8434 22.8851 23.9899C23.0316 24.1364 23.2303 24.2188 23.4375 24.2188H31.25C31.4572 24.2188 31.6559 24.1364 31.8024 23.9899C31.9489 23.8434 32.0312 23.6447 32.0312 23.4375V7.8125C32.0312 7.6053 31.9489 7.40659 31.8024 7.26007C31.6559 7.11356 31.4572 7.03125 31.25 7.03125H16.4062C16.199 7.03125 16.0003 7.11356 15.8538 7.26007C15.7073 7.40659 15.625 7.6053 15.625 7.8125C15.625 8.0197 15.7073 8.21841 15.8538 8.36493C16.0003 8.51144 16.199 8.59375 16.4062 8.59375ZM27.4219 22.6562C27.5765 21.9062 27.9475 21.2179 28.489 20.6765C29.0304 20.135 29.7187 19.764 30.4688 19.6094V22.6562H27.4219ZM30.4688 11.6406C29.7187 11.486 29.0304 11.115 28.489 10.5735C27.9475 10.0321 27.5765 9.34377 27.4219 8.59375H30.4688V11.6406Z" fill="#FFBB01"/>
<path d="M18.75 19.5313C19.5226 19.5313 20.2778 19.3022 20.9202 18.8729C21.5626 18.4437 22.0633 17.8336 22.3589 17.1199C22.6546 16.4061 22.7319 15.6207 22.5812 14.8629C22.4305 14.1052 22.0584 13.4092 21.5121 12.8629C20.9658 12.3166 20.2698 11.9445 19.5121 11.7938C18.7543 11.6431 17.9689 11.7204 17.2551 12.0161C16.5414 12.3118 15.9313 12.8124 15.5021 13.4548C15.0728 14.0972 14.8438 14.8524 14.8438 15.625C14.845 16.6606 15.2569 17.6535 15.9892 18.3858C16.7215 19.1181 17.7144 19.53 18.75 19.5313V19.5313ZM18.75 13.2813C19.2136 13.2813 19.6667 13.4187 20.0521 13.6762C20.4375 13.9338 20.738 14.2998 20.9153 14.7281C21.0927 15.1564 21.1392 15.6276 21.0487 16.0822C20.9583 16.5369 20.7351 16.9545 20.4073 17.2823C20.0795 17.6101 19.6619 17.8333 19.2072 17.9237C18.7526 18.0142 18.2814 17.9677 17.8531 17.7903C17.4248 17.613 17.0588 17.3125 16.8012 16.9271C16.5437 16.5417 16.4063 16.0886 16.4063 15.625C16.4063 15.0034 16.6532 14.4073 17.0927 13.9677C17.5323 13.5282 18.1284 13.2813 18.75 13.2813Z" fill="#FFBB01"/>
<path d="M27.3438 16.4062C27.551 16.4062 27.7497 16.3239 27.8962 16.1774C28.0427 16.0309 28.125 15.8322 28.125 15.625C28.125 15.4178 28.0427 15.2191 27.8962 15.0726C27.7497 14.9261 27.551 14.8438 27.3438 14.8438H25C24.7928 14.8438 24.5941 14.9261 24.4476 15.0726C24.3011 15.2191 24.2188 15.4178 24.2188 15.625C24.2188 15.8322 24.3011 16.0309 24.4476 16.1774C24.5941 16.3239 24.7928 16.4062 25 16.4062H27.3438Z" fill="#FFBB01"/>
<path d="M10.1562 14.8438C9.94905 14.8438 9.75034 14.9261 9.60382 15.0726C9.45731 15.2191 9.375 15.4178 9.375 15.625C9.375 15.8322 9.45731 16.0309 9.60382 16.1774C9.75034 16.3239 9.94905 16.4062 10.1562 16.4062H12.5C12.7072 16.4062 12.9059 16.3239 13.0524 16.1774C13.1989 16.0309 13.2812 15.8322 13.2812 15.625C13.2812 15.4178 13.1989 15.2191 13.0524 15.0726C12.9059 14.9261 12.7072 14.8438 12.5 14.8438H10.1562Z" fill="#FFBB01"/>
<path d="M11.8352 40.2547C11.9052 40.368 12.0031 40.4615 12.1194 40.5263C12.2358 40.5911 12.3668 40.6251 12.5 40.625H20.3125C20.4457 40.6251 20.5767 40.5911 20.693 40.5263C20.8094 40.4615 20.9072 40.368 20.9773 40.2547C21.0474 40.1414 21.0873 40.0121 21.0933 39.8791C21.0993 39.746 21.0713 39.6137 21.0117 39.4945L17.1055 31.682C17.0333 31.561 16.9309 31.4607 16.8083 31.3911C16.6858 31.3215 16.5472 31.2849 16.4063 31.2849C16.2653 31.2849 16.1267 31.3215 16.0042 31.3911C15.8816 31.4607 15.7792 31.561 15.707 31.682L14.0977 34.9008C13.573 34.3319 13.2815 33.5864 13.2813 32.8125C13.2813 31.9837 13.6105 31.1888 14.1965 30.6028C14.7826 30.0167 15.5774 29.6875 16.4063 29.6875C17.2351 29.6875 18.0299 30.0167 18.616 30.6028C19.202 31.1888 19.5313 31.9837 19.5313 32.8125C19.5313 33.0197 19.6136 33.2184 19.7601 33.3649C19.9066 33.5114 20.1053 33.5938 20.3125 33.5938C20.5197 33.5938 20.7184 33.5114 20.8649 33.3649C21.0114 33.2184 21.0938 33.0197 21.0938 32.8125C21.0938 31.5693 20.5999 30.377 19.7208 29.4979C18.8417 28.6189 17.6495 28.125 16.4063 28.125C15.163 28.125 13.9708 28.6189 13.0917 29.4979C12.2126 30.377 11.7188 31.5693 11.7188 32.8125C11.7183 33.4884 11.8657 34.1563 12.1506 34.7693C12.4355 35.3823 12.851 35.9255 13.368 36.3609L13.1891 36.7188H8.59375C8.38655 36.7188 8.18784 36.8011 8.04132 36.9476C7.89481 37.0941 7.8125 37.2928 7.8125 37.5V43.75C7.8125 43.9572 7.89481 44.1559 8.04132 44.3024C8.18784 44.4489 8.38655 44.5312 8.59375 44.5312H14.8438C15.051 44.5312 15.2497 44.4489 15.3962 44.3024C15.5427 44.1559 15.625 43.9572 15.625 43.75V42.1875C15.625 41.9803 15.5427 41.7816 15.3962 41.6351C15.2497 41.4886 15.051 41.4062 14.8438 41.4062C14.6366 41.4062 14.4378 41.4886 14.2913 41.6351C14.1448 41.7816 14.0625 41.9803 14.0625 42.1875V42.9688H9.375V38.2812H12.4078L11.8008 39.4945C11.7412 39.6137 11.7132 39.746 11.7192 39.8791C11.7252 40.0121 11.7651 40.1414 11.8352 40.2547V40.2547ZM16.4063 33.7781L19.0484 39.0625H13.7641L16.4063 33.7781Z" fill="#FFBB01"/>
<path d="M6.25 25.7812C6.0428 25.7812 5.84409 25.8636 5.69757 26.0101C5.55106 26.1566 5.46875 26.3553 5.46875 26.5625V32.8125C5.46875 33.0197 5.55106 33.2184 5.69757 33.3649C5.84409 33.5114 6.0428 33.5938 6.25 33.5938H9.375C9.5822 33.5938 9.78091 33.5114 9.92743 33.3649C10.0739 33.2184 10.1562 33.0197 10.1562 32.8125C10.1562 32.6053 10.0739 32.4066 9.92743 32.2601C9.78091 32.1136 9.5822 32.0312 9.375 32.0312H7.03125V26.5625C7.03125 26.3553 6.94894 26.1566 6.80243 26.0101C6.65591 25.8636 6.4572 25.7812 6.25 25.7812V25.7812Z" fill="#FFBB01"/>
<path d="M24.2188 31.25C24.2211 32.1304 24.4353 32.9974 24.8432 33.7776C25.2511 34.5579 25.8408 35.2285 26.5625 35.7328V35.9375H26.1719C25.9647 35.9375 25.766 36.0198 25.6194 36.1663C25.4729 36.3128 25.3906 36.5116 25.3906 36.7188C25.3906 36.926 25.4729 37.1247 25.6194 37.2712C25.766 37.4177 25.9647 37.5 26.1719 37.5H26.5625C26.5625 38.3288 26.8917 39.1237 27.4778 39.7097C28.0638 40.2958 28.8587 40.625 29.6875 40.625H33.5938C33.801 40.625 33.9997 40.7073 34.1462 40.8538C34.2927 41.0003 34.375 41.1991 34.375 41.4063C34.375 41.6135 34.2927 41.8122 34.1462 41.9587C33.9997 42.1052 33.801 42.1875 33.5938 42.1875H17.9688C17.7615 42.1875 17.5628 42.2698 17.4163 42.4163C17.2698 42.5628 17.1875 42.7616 17.1875 42.9688C17.1875 43.176 17.2698 43.3747 17.4163 43.5212C17.5628 43.6677 17.7615 43.75 17.9688 43.75H33.5938C34.0768 43.748 34.5474 43.5968 34.9412 43.3171C35.335 43.0374 35.6327 42.6429 35.7938 42.1875H41.4062C41.6135 42.1875 41.8122 42.1052 41.9587 41.9587C42.1052 41.8122 42.1875 41.6135 42.1875 41.4063C42.1875 41.1991 42.1052 41.0003 41.9587 40.8538C41.8122 40.7073 41.6135 40.625 41.4062 40.625H35.7938C35.6327 40.1696 35.335 39.7751 34.9412 39.4954C34.5474 39.2157 34.0768 39.0645 33.5938 39.0625H32.3781C32.6593 38.5896 32.8093 38.0502 32.8125 37.5H33.2031C33.4103 37.5 33.609 37.4177 33.7556 37.2712C33.9021 37.1247 33.9844 36.926 33.9844 36.7188C33.9844 36.5116 33.9021 36.3128 33.7556 36.1663C33.609 36.0198 33.4103 35.9375 33.2031 35.9375H32.8125V35.7328C33.5844 35.1953 34.2046 34.4679 34.6132 33.6207C35.0218 32.7735 35.205 31.8353 35.1451 30.8966C35.0853 29.958 34.7843 29.0506 34.2713 28.2623C33.7583 27.4739 33.0507 26.8312 32.2168 26.3962C31.3828 25.9612 30.4508 25.7486 29.5107 25.779C28.5707 25.8094 27.6543 26.0817 26.8502 26.5697C26.0462 27.0577 25.3815 27.7448 24.9206 28.5647C24.4596 29.3845 24.2179 30.3094 24.2188 31.25V31.25ZM29.6875 39.0625C29.2731 39.0625 28.8757 38.8979 28.5826 38.6049C28.2896 38.3118 28.125 37.9144 28.125 37.5H31.25C31.25 37.9144 31.0854 38.3118 30.7924 38.6049C30.4993 38.8979 30.1019 39.0625 29.6875 39.0625ZM33.5938 31.25C33.5917 31.9348 33.4103 32.6072 33.0676 33.2002C32.725 33.7931 32.233 34.286 31.6406 34.6297C31.522 34.6982 31.4234 34.7967 31.3549 34.9153C31.2863 35.0339 31.2501 35.1685 31.25 35.3055V35.9375H30.4688V33.1359L31.8023 31.8023C31.9447 31.655 32.0234 31.4577 32.0216 31.2528C32.0198 31.048 31.9377 30.852 31.7928 30.7072C31.648 30.5623 31.452 30.4802 31.2472 30.4784C31.0423 30.4766 30.845 30.5553 30.6977 30.6977L29.6875 31.7078L28.6773 30.6977C28.53 30.5553 28.3327 30.4766 28.1278 30.4784C27.923 30.4802 27.727 30.5623 27.5822 30.7072C27.4373 30.852 27.3552 31.048 27.3534 31.2528C27.3516 31.4577 27.4303 31.655 27.5727 31.8023L28.9062 33.1359V35.9375H28.125V35.3055C28.1249 35.1685 28.0887 35.0339 28.0201 34.9153C27.9516 34.7967 27.853 34.6982 27.7344 34.6297C27.1404 34.2868 26.6472 33.7935 26.3044 33.1996C25.9615 32.6056 25.7811 31.9318 25.7812 31.246C25.7814 30.5601 25.9621 29.8864 26.3052 29.2926C26.6483 28.6988 27.1417 28.2057 27.7358 27.8631C28.3299 27.5204 29.0037 27.3402 29.6895 27.3405C30.3753 27.3409 31.049 27.5218 31.6427 27.8651C32.2365 28.2084 32.7293 28.7019 33.0718 29.2961C33.4143 29.8903 33.5943 30.5642 33.5938 31.25Z" fill="#FFBB01"/>
<path d="M34.375 25.7812C34.5822 25.7812 34.7809 25.6989 34.9274 25.5524C35.0739 25.4059 35.1562 25.2072 35.1562 25V21.0938C35.1562 20.8865 35.0739 20.6878 34.9274 20.5413C34.7809 20.3948 34.5822 20.3125 34.375 20.3125C34.1678 20.3125 33.9691 20.3948 33.8226 20.5413C33.6761 20.6878 33.5938 20.8865 33.5938 21.0938V25C33.5938 25.2072 33.6761 25.4059 33.8226 25.5524C33.9691 25.6989 34.1678 25.7812 34.375 25.7812Z" fill="#FFBB01"/>
</svg>
