<svg width="50" height="50" viewBox="0 0 50 50" fill="none" xmlns="http://www.w3.org/2000/svg">
<path d="M31.25 21.875H35.1562C35.3635 21.875 35.5622 21.7927 35.7087 21.6462C35.8552 21.4997 35.9375 21.301 35.9375 21.0938C35.9375 20.8865 35.8552 20.6878 35.7087 20.5413C35.5622 20.3948 35.3635 20.3125 35.1562 20.3125H31.25C31.0428 20.3125 30.8441 20.3948 30.6976 20.5413C30.5511 20.6878 30.4688 20.8865 30.4688 21.0938C30.4688 21.301 30.5511 21.4997 30.6976 21.6462C30.8441 21.7927 31.0428 21.875 31.25 21.875Z" fill="#FFBB01"/>
<path d="M47.6562 20.3125C47.449 20.3125 47.2503 20.3948 47.1038 20.5413C46.9573 20.6878 46.875 20.8865 46.875 21.0938V46.875H7.03125C6.25867 46.875 5.50343 46.6459 4.86105 46.2167C4.21867 45.7875 3.718 45.1774 3.42235 44.4636C3.12669 43.7498 3.04933 42.9644 3.20006 42.2067C3.35078 41.4489 3.72282 40.7529 4.26911 40.2066C4.81541 39.6603 5.51144 39.2883 6.26918 39.1376C7.02692 38.9868 7.81233 39.0642 8.52611 39.3598C9.23988 39.6555 9.84995 40.1562 10.2792 40.7986C10.7084 41.4409 10.9375 42.1962 10.9375 42.9688C10.9375 43.176 11.0198 43.3747 11.1663 43.5212C11.3128 43.6677 11.5115 43.75 11.7188 43.75C11.926 43.75 12.1247 43.6677 12.2712 43.5212C12.4177 43.3747 12.5 43.176 12.5 42.9688V21.875H14.8438C15.051 21.875 15.2497 21.7927 15.3962 21.6462C15.5427 21.4997 15.625 21.301 15.625 21.0938C15.625 20.8865 15.5427 20.6878 15.3962 20.5413C15.2497 20.3948 15.051 20.3125 14.8438 20.3125H12.5V17.9688C12.5 16.5183 11.9238 15.1273 10.8982 14.1018C9.87265 13.0762 8.48165 12.5 7.03125 12.5C5.58085 12.5 4.18985 13.0762 3.16426 14.1018C2.13867 15.1273 1.5625 16.5183 1.5625 17.9688V42.9688C1.56415 44.4186 2.14086 45.8087 3.16609 46.8339C4.19132 47.8591 5.58136 48.4358 7.03125 48.4375H47.6562C47.8635 48.4375 48.0622 48.3552 48.2087 48.2087C48.3552 48.0622 48.4375 47.8635 48.4375 47.6562V21.0938C48.4375 20.8865 48.3552 20.6878 48.2087 20.5413C48.0622 20.3948 47.8635 20.3125 47.6562 20.3125ZM3.125 17.9688C3.125 16.9327 3.53655 15.9392 4.26911 15.2066C5.00168 14.4741 5.99525 14.0625 7.03125 14.0625C8.06725 14.0625 9.06082 14.4741 9.79339 15.2066C10.5259 15.9392 10.9375 16.9327 10.9375 17.9688V39.1406C10.4288 38.6201 9.8212 38.2064 9.15039 37.9241C8.47957 37.6417 7.75908 37.4962 7.03125 37.4962C6.30342 37.4962 5.58293 37.6417 4.91211 37.9241C4.2413 38.2064 3.63369 38.6201 3.125 39.1406V17.9688Z" fill="#FFBB01"/>
<path d="M37.5555 29.9781L38.8055 33.1031L40.6805 37.7906C40.7383 37.9359 40.8384 38.0604 40.9678 38.1481C41.0972 38.2359 41.2499 38.2827 41.4062 38.2827C41.5626 38.2827 41.7153 38.2359 41.8447 38.1481C41.9741 38.0604 42.0742 37.9359 42.132 37.7906L44.007 33.1031L45.257 29.9781C45.2884 29.8946 45.305 29.8064 45.3063 29.7172C45.3063 29.707 45.3125 29.6984 45.3125 29.6875V16.4062C45.3125 16.199 45.2302 16.0003 45.0837 15.8538C44.9372 15.7073 44.7385 15.625 44.5312 15.625C44.324 15.625 44.1253 15.7073 43.9788 15.8538C43.8323 16.0003 43.75 16.199 43.75 16.4062V28.9062H42.1875V10.9375H43.75V13.2812C43.75 13.4885 43.8323 13.6872 43.9788 13.8337C44.1253 13.9802 44.324 14.0625 44.5312 14.0625C44.7385 14.0625 44.9372 13.9802 45.0837 13.8337C45.2302 13.6872 45.3125 13.4885 45.3125 13.2812V5.46875C45.3125 4.43275 44.9009 3.43918 44.1684 2.70661C43.4358 1.97405 42.4423 1.5625 41.4062 1.5625C40.3702 1.5625 39.3767 1.97405 38.6441 2.70661C37.9116 3.43918 37.5 4.43275 37.5 5.46875V29.6875C37.5 29.6984 37.5055 29.707 37.5062 29.718C37.5075 29.8069 37.5242 29.8949 37.5555 29.9781V29.9781ZM40.6852 33.5938H42.1273L41.4062 35.3969L40.6852 33.5938ZM42.7523 32.0312H40.0602L39.4352 30.4688H43.3773L42.7523 32.0312ZM40.625 28.9062H39.0625V10.9375H40.625V28.9062ZM39.0625 9.375V7.8125H43.75V9.375H39.0625ZM39.0625 5.46875C39.0625 4.84715 39.3094 4.25101 39.749 3.81147C40.1885 3.37193 40.7846 3.125 41.4062 3.125C42.0279 3.125 42.624 3.37193 43.0635 3.81147C43.5031 4.25101 43.75 4.84715 43.75 5.46875V6.25H39.0625V5.46875Z" fill="#FFBB01"/>
<path d="M18.7499 16.9532V17.3289C18.2932 17.488 17.8974 17.7853 17.6173 18.1795C17.3372 18.5737 17.1867 19.0453 17.1867 19.5289C17.1867 20.0125 17.3372 20.4841 17.6173 20.8784C17.8974 21.2726 18.2932 21.5698 18.7499 21.7289V21.875C18.7514 22.8631 19.0647 23.8255 19.6452 24.6251C20.2256 25.4247 21.0437 26.0207 21.9827 26.3282C21.1483 27.1668 20.1003 27.7612 18.9523 28.0469L17.7609 28.3453C16.8464 28.5713 16.0464 29.1245 15.5122 29.9003C14.9779 30.6762 14.7464 31.6208 14.8615 32.5558C14.9766 33.4907 15.4302 34.351 16.1366 34.9742C16.843 35.5973 17.7533 35.94 18.6952 35.9375H20.3124C20.5196 35.9375 20.7183 35.8552 20.8649 35.7087C21.0114 35.5622 21.0937 35.3635 21.0937 35.1563C21.0937 34.9491 21.0114 34.7504 20.8649 34.6039C20.7183 34.4573 20.5196 34.375 20.3124 34.375H18.6952C18.1367 34.3745 17.5976 34.1698 17.1795 33.7996C16.7613 33.4293 16.4929 32.919 16.4247 32.3646C16.3565 31.8103 16.4933 31.2501 16.8093 30.7896C17.1254 30.3291 17.5988 29.9999 18.1405 29.8641L19.332 29.5664C21.1421 29.1124 22.7381 28.0433 23.8468 26.5422C25.0139 26.439 26.1002 25.9028 26.8919 25.0391C27.6836 24.1754 28.1234 23.0467 28.1249 21.875V21.7313C28.5816 21.5722 28.9774 21.2749 29.2576 20.8807C29.5377 20.4865 29.6882 20.0149 29.6882 19.5313C29.6882 19.0477 29.5377 18.5761 29.2576 18.1819C28.9774 17.7876 28.5816 17.4904 28.1249 17.3313V16.9532C29.3378 15.8714 30.137 14.4019 30.386 12.7959C30.635 11.19 30.3181 9.54741 29.4898 8.14924C29.3844 7.97074 29.2125 7.8414 29.0117 7.78968C28.811 7.73797 28.598 7.7681 28.4195 7.87346C28.241 7.97882 28.1116 8.15078 28.0599 8.3515C28.0082 8.55222 28.0383 8.76527 28.1437 8.94377C28.8147 10.0749 29.0539 11.4106 28.8169 12.7043C28.58 13.9979 27.883 15.1622 26.8546 15.9821C26.7634 16.0553 26.6898 16.148 26.6392 16.2535C26.5886 16.359 26.5624 16.4745 26.5624 16.5914V17.1875H25.8726L26.5577 11.0235C26.5722 10.8932 26.5536 10.7614 26.5038 10.6401C26.4539 10.5189 26.3743 10.4122 26.2724 10.3298C26.1705 10.2473 26.0494 10.1919 25.9204 10.1686C25.7915 10.1452 25.6587 10.1547 25.5343 10.1961L23.4374 10.8953L21.3406 10.1961C21.2162 10.1547 21.0834 10.1452 20.9544 10.1686C20.8254 10.1919 20.7044 10.2473 20.6025 10.3298C20.5005 10.4122 20.4209 10.5189 20.3711 10.6401C20.3212 10.7614 20.3027 10.8932 20.3171 11.0235L21.0023 17.1875H20.3124V16.5938C20.3124 16.4768 20.2862 16.3613 20.2356 16.2559C20.1851 16.1504 20.1115 16.0576 20.0202 15.9844C18.9381 15.122 18.2235 13.8811 18.0207 12.5122C17.818 11.1434 18.1423 9.74861 18.9281 8.60957C19.7138 7.47054 20.9026 6.67212 22.2542 6.37554C23.6058 6.07897 25.0196 6.30634 26.2101 7.01174C26.3886 7.1171 26.6016 7.14724 26.8024 7.09552C27.0031 7.0438 27.175 6.91446 27.2804 6.73596C27.3858 6.55746 27.4159 6.34441 27.3642 6.14369C27.3125 5.94297 27.1831 5.77101 27.0046 5.66565C25.5027 4.78142 23.7257 4.48695 22.0188 4.83942C20.3119 5.19189 18.7969 6.16616 17.7681 7.573C16.7393 8.97984 16.27 10.7188 16.4514 12.4523C16.6329 14.1857 17.4521 15.7898 18.7499 16.9532V16.9532ZM23.4374 25C22.6086 25 21.8138 24.6708 21.2277 24.0847C20.6417 23.4987 20.3124 22.7038 20.3124 21.875H26.5624C26.5624 22.7038 26.2332 23.4987 25.6471 24.0847C25.0611 24.6708 24.2662 25 23.4374 25ZM22.0054 12.0649L23.1906 12.4602C23.3508 12.5136 23.524 12.5136 23.6843 12.4602L24.8695 12.0649L24.3007 17.1875H22.578L22.0054 12.0649ZM21.8749 18.75H27.3437C27.5509 18.75 27.7496 18.8323 27.8961 18.9788C28.0426 19.1254 28.1249 19.3241 28.1249 19.5313C28.1249 19.7385 28.0426 19.9372 27.8961 20.0837C27.7496 20.2302 27.5509 20.3125 27.3437 20.3125H19.5312C19.324 20.3125 19.1253 20.2302 18.9787 20.0837C18.8322 19.9372 18.7499 19.7385 18.7499 19.5313C18.7499 19.3241 18.8322 19.1254 18.9787 18.9788C19.1253 18.8323 19.324 18.75 19.5312 18.75H21.8749Z" fill="#FFBB01"/>
<path d="M14.0625 12.5C14.494 12.5 14.8438 12.1502 14.8438 11.7188C14.8438 11.2873 14.494 10.9375 14.0625 10.9375C13.631 10.9375 13.2812 11.2873 13.2812 11.7188C13.2812 12.1502 13.631 12.5 14.0625 12.5Z" fill="#FFBB01"/>
<path d="M32.8125 12.5C33.244 12.5 33.5938 12.1502 33.5938 11.7188C33.5938 11.2873 33.244 10.9375 32.8125 10.9375C32.381 10.9375 32.0312 11.2873 32.0312 11.7188C32.0312 12.1502 32.381 12.5 32.8125 12.5Z" fill="#FFBB01"/>
<path d="M23.4375 3.125C23.869 3.125 24.2188 2.77522 24.2188 2.34375C24.2188 1.91228 23.869 1.5625 23.4375 1.5625C23.006 1.5625 22.6562 1.91228 22.6562 2.34375C22.6562 2.77522 23.006 3.125 23.4375 3.125Z" fill="#FFBB01"/>
<path d="M14.9281 7.70782C15.0619 7.78508 15.2156 7.82093 15.3698 7.81083C15.524 7.80073 15.6717 7.74513 15.7943 7.65107C15.9169 7.55701 16.0088 7.42871 16.0585 7.28239C16.1082 7.13607 16.1133 6.97831 16.0734 6.82906C16.0334 6.6798 15.95 6.54576 15.8338 6.44388C15.7177 6.342 15.5739 6.27685 15.4207 6.25668C15.2675 6.23652 15.1118 6.26223 14.9732 6.33057C14.8346 6.39891 14.7194 6.50681 14.6421 6.64063C14.5385 6.82007 14.5105 7.03331 14.5641 7.23344C14.6177 7.43358 14.7486 7.60422 14.9281 7.70782Z" fill="#FFBB01"/>
<path d="M31.1656 17.0828C31.2994 17.1601 31.4532 17.1959 31.6073 17.1858C31.7615 17.1757 31.9093 17.1201 32.0319 17.0261C32.1544 16.932 32.2464 16.8037 32.2961 16.6574C32.3457 16.5111 32.3509 16.3533 32.3109 16.2041C32.2709 16.0548 32.1876 15.9208 32.0714 15.8189C31.9552 15.717 31.8114 15.6519 31.6582 15.6317C31.5051 15.6115 31.3493 15.6372 31.2107 15.7056C31.0722 15.7739 30.9569 15.8818 30.8797 16.0156C30.7761 16.1951 30.748 16.4083 30.8016 16.6084C30.8553 16.8086 30.9862 16.9792 31.1656 17.0828Z" fill="#FFBB01"/>
<path d="M28.3272 4.35503C28.744 4.24336 28.9913 3.81497 28.8797 3.3982C28.768 2.98143 28.3396 2.7341 27.9228 2.84577C27.5061 2.95744 27.2587 3.38583 27.3704 3.8026C27.4821 4.21937 27.9105 4.4667 28.3272 4.35503Z" fill="#FFBB01"/>
<path d="M31.9469 7.70784C32.0807 7.63058 32.1886 7.51537 32.257 7.37679C32.3253 7.23821 32.351 7.08247 32.3308 6.92928C32.3107 6.77608 32.2455 6.6323 32.1436 6.51613C32.0418 6.39996 31.9077 6.31661 31.7585 6.27662C31.6092 6.23663 31.4515 6.24179 31.3051 6.29147C31.1588 6.34114 31.0305 6.43308 30.9365 6.55567C30.8424 6.67826 30.7868 6.82599 30.7767 6.98018C30.7666 7.13436 30.8024 7.28809 30.8797 7.4219C30.9833 7.60133 31.1539 7.73226 31.3541 7.78588C31.5542 7.83951 31.7675 7.81143 31.9469 7.70784Z" fill="#FFBB01"/>
<path d="M15.9953 16.0156C15.9181 15.8818 15.8028 15.7739 15.6643 15.7056C15.5257 15.6372 15.3699 15.6115 15.2168 15.6317C15.0636 15.6519 14.9198 15.717 14.8036 15.8189C14.6874 15.9208 14.6041 16.0548 14.5641 16.2041C14.5241 16.3533 14.5293 16.5111 14.5789 16.6574C14.6286 16.8037 14.7206 16.932 14.8431 17.0261C14.9657 17.1201 15.1135 17.1757 15.2677 17.1858C15.4218 17.1959 15.5756 17.1601 15.7094 17.0828C15.8888 16.9792 16.0197 16.8086 16.0734 16.6084C16.127 16.4083 16.0989 16.1951 15.9953 16.0156Z" fill="#FFBB01"/>
<path d="M19.1406 4.27656C19.2744 4.1993 19.3823 4.0841 19.4507 3.94552C19.519 3.80693 19.5447 3.6512 19.5246 3.498C19.5044 3.34481 19.4393 3.20103 19.3374 3.08486C19.2355 2.96869 19.1014 2.88533 18.9522 2.84534C18.8029 2.80535 18.6452 2.81052 18.4989 2.86019C18.3525 2.90986 18.2242 3.00181 18.1302 3.1244C18.0361 3.24699 17.9805 3.39472 17.9704 3.5489C17.9603 3.70309 17.9962 3.85681 18.0734 3.99062C18.177 4.17006 18.3477 4.30099 18.5478 4.35461C18.7479 4.40823 18.9612 4.38016 19.1406 4.27656V4.27656Z" fill="#FFBB01"/>
<path d="M27.3437 42.1875H30.4687C30.6759 42.1875 30.8747 42.1052 31.0212 41.9587C31.1677 41.8122 31.25 41.6135 31.25 41.4062V40.093C31.5152 39.9679 31.7697 39.8213 32.0109 39.6547L33.1469 40.3109C33.3263 40.4145 33.5395 40.4426 33.7397 40.389C33.9398 40.3354 34.1105 40.2044 34.2141 40.025L35.7766 37.3188C35.8802 37.1393 35.9082 36.9261 35.8546 36.7259C35.801 36.5258 35.6701 36.3552 35.4906 36.2516L34.3562 35.5961C34.3687 35.4484 34.375 35.3023 34.375 35.1562C34.375 35.0102 34.3687 34.8641 34.3562 34.7164L35.4906 34.0609C35.6701 33.9573 35.801 33.7867 35.8546 33.5866C35.9082 33.3864 35.8802 33.1732 35.7766 32.9937L34.2141 30.2875C34.1105 30.1081 33.9398 29.9771 33.7397 29.9235C33.5395 29.8699 33.3263 29.898 33.1469 30.0016L32.0109 30.6578C31.7697 30.4912 31.5152 30.3446 31.25 30.2195V28.9062C31.25 28.699 31.1677 28.5003 31.0212 28.3538C30.8747 28.2073 30.6759 28.125 30.4687 28.125H27.3437C27.1365 28.125 26.9378 28.2073 26.7913 28.3538C26.6448 28.5003 26.5625 28.699 26.5625 28.9062V30.2195C26.2973 30.3446 26.0428 30.4912 25.8016 30.6578L24.6656 30.0016C24.4862 29.898 24.2729 29.8699 24.0728 29.9235C23.8727 29.9771 23.702 30.1081 23.5984 30.2875L22.0359 32.9937C21.9323 33.1732 21.9043 33.3864 21.9579 33.5866C22.0115 33.7867 22.1424 33.9573 22.3219 34.0609L23.4562 34.7164C23.4437 34.8641 23.4375 35.0102 23.4375 35.1562C23.4375 35.3023 23.4437 35.4484 23.4562 35.5961L22.3219 36.2516C22.2323 36.3025 22.1537 36.3706 22.0906 36.4521C22.0274 36.5335 21.981 36.6266 21.9541 36.726C21.9271 36.8255 21.92 36.9292 21.9333 37.0314C21.9466 37.1336 21.9799 37.2321 22.0314 37.3213C22.0829 37.4106 22.1516 37.4887 22.2334 37.5513C22.3153 37.6139 22.4087 37.6597 22.5083 37.686C22.6079 37.7123 22.7118 37.7187 22.8138 37.7048C22.9159 37.6908 23.0142 37.6568 23.1031 37.6047L24.6875 36.6875C24.8273 36.6069 24.9387 36.485 25.0064 36.3385C25.0741 36.1921 25.0948 36.0282 25.0656 35.8695C24.974 35.3984 24.974 34.9141 25.0656 34.443C25.0948 34.2843 25.0741 34.1204 25.0064 33.974C24.9387 33.8275 24.8273 33.7056 24.6875 33.625L23.7766 33.0984L24.5578 31.7453L25.4687 32.2719C25.6087 32.3527 25.7702 32.3881 25.9311 32.3733C26.092 32.3584 26.2444 32.2941 26.3672 32.1891C26.7315 31.8781 27.1499 31.6368 27.6016 31.4773C27.7543 31.424 27.8866 31.3245 27.9804 31.1927C28.0741 31.0608 28.1247 30.9032 28.125 30.7414V29.6875H29.6875V30.7414C29.6876 30.9028 29.7377 31.0602 29.8308 31.192C29.924 31.3238 30.0557 31.4234 30.2078 31.4773C30.6595 31.6368 31.0779 31.8781 31.4422 32.1891C31.565 32.2941 31.7173 32.3584 31.8782 32.3733C32.0391 32.3881 32.2007 32.3527 32.3406 32.2719L33.2516 31.7453L34.0328 33.0984L33.125 33.625C32.9852 33.7056 32.8738 33.8275 32.8061 33.974C32.7384 34.1204 32.7177 34.2843 32.7469 34.443C32.8385 34.9141 32.8385 35.3984 32.7469 35.8695C32.7177 36.0282 32.7384 36.1921 32.8061 36.3385C32.8738 36.485 32.9852 36.6069 33.125 36.6875L34.0359 37.2141L33.2547 38.5672L32.3437 38.0406C32.2038 37.9598 32.0423 37.9244 31.8814 37.9392C31.7205 37.9541 31.5681 38.0184 31.4453 38.1234C31.081 38.4344 30.6626 38.6757 30.2109 38.8352C30.0588 38.8891 29.9271 38.9887 29.834 39.1205C29.7408 39.2523 29.6907 39.4097 29.6906 39.5711V40.625H28.125V39.5711C28.1249 39.4097 28.0748 39.2523 27.9817 39.1205C27.8885 38.9887 27.7568 38.8891 27.6047 38.8352C27.153 38.6757 26.7346 38.4344 26.3703 38.1234C26.2475 38.0184 26.0952 37.9541 25.9343 37.9392C25.7733 37.9244 25.6118 37.9598 25.4719 38.0406L23.8844 38.9578C23.7948 39.0087 23.7162 39.0769 23.6531 39.1583C23.5899 39.2397 23.5435 39.3328 23.5166 39.4323C23.4896 39.5317 23.4825 39.6355 23.4958 39.7377C23.5091 39.8398 23.5424 39.9384 23.5939 40.0276C23.6454 40.1168 23.7141 40.195 23.7959 40.2576C23.8778 40.3202 23.9712 40.3659 24.0708 40.3923C24.1704 40.4186 24.2743 40.425 24.3763 40.411C24.4784 40.3971 24.5767 40.363 24.6656 40.3109L25.8016 39.6547C26.0428 39.8213 26.2973 39.9679 26.5625 40.093V41.4062C26.5625 41.6135 26.6448 41.8122 26.7913 41.9587C26.9378 42.1052 27.1365 42.1875 27.3437 42.1875Z" fill="#FFBB01"/>
<path d="M31.25 35.1563C31.25 34.6927 31.1125 34.2396 30.855 33.8541C30.5975 33.4687 30.2314 33.1683 29.8032 32.9909C29.3749 32.8135 28.9037 32.7671 28.449 32.8575C27.9944 32.948 27.5767 33.1712 27.249 33.499C26.9212 33.8267 26.698 34.2444 26.6075 34.699C26.5171 35.1537 26.5635 35.6249 26.7409 36.0532C26.9183 36.4814 27.2187 36.8475 27.6041 37.105C27.9896 37.3625 28.4427 37.5 28.9063 37.5C29.5279 37.5 30.124 37.2531 30.5635 36.8135C31.0031 36.374 31.25 35.7779 31.25 35.1563ZM28.125 35.1563C28.125 35.0017 28.1708 34.8507 28.2567 34.7222C28.3425 34.5937 28.4645 34.4936 28.6073 34.4345C28.75 34.3753 28.9071 34.3599 29.0587 34.39C29.2102 34.4202 29.3494 34.4946 29.4587 34.6038C29.5679 34.7131 29.6423 34.8523 29.6725 35.0038C29.7026 35.1554 29.6872 35.3125 29.628 35.4552C29.5689 35.598 29.4688 35.72 29.3403 35.8058C29.2118 35.8917 29.0608 35.9375 28.9063 35.9375C28.6991 35.9375 28.5003 35.8552 28.3538 35.7087C28.2073 35.5622 28.125 35.3635 28.125 35.1563Z" fill="#FFBB01"/>
<path d="M29.6875 45.3125H39.0625C39.8913 45.3125 40.6862 44.9833 41.2722 44.3972C41.8583 43.8112 42.1875 43.0163 42.1875 42.1875V40.625C42.1875 40.4178 42.1052 40.2191 41.9587 40.0726C41.8122 39.9261 41.6135 39.8438 41.4062 39.8438C41.199 39.8438 41.0003 39.9261 40.8538 40.0726C40.7073 40.2191 40.625 40.4178 40.625 40.625V42.1875C40.625 42.6019 40.4604 42.9993 40.1674 43.2924C39.8743 43.5854 39.4769 43.75 39.0625 43.75H29.6875C29.4803 43.75 29.2816 43.8323 29.1351 43.9788C28.9886 44.1253 28.9062 44.324 28.9062 44.5312C28.9062 44.7385 28.9886 44.9372 29.1351 45.0837C29.2816 45.2302 29.4803 45.3125 29.6875 45.3125Z" fill="#FFBB01"/>
<path d="M15.625 42.1875C15.625 42.651 15.7625 43.1042 16.02 43.4896C16.2775 43.875 16.6436 44.1754 17.0718 44.3528C17.5001 44.5302 17.9714 44.5766 18.426 44.4862C18.8806 44.3958 19.2983 44.1726 19.626 43.8448C19.9538 43.517 20.177 43.0994 20.2675 42.6447C20.3579 42.1901 20.3115 41.7189 20.1341 41.2906C19.9567 40.8623 19.6563 40.4963 19.2709 40.2387C18.8854 39.9812 18.4323 39.8438 17.9688 39.8438C17.3471 39.8438 16.751 40.0907 16.3115 40.5302C15.8719 40.9698 15.625 41.5659 15.625 42.1875V42.1875ZM18.75 42.1875C18.75 42.342 18.7042 42.4931 18.6183 42.6215C18.5325 42.75 18.4105 42.8501 18.2677 42.9093C18.125 42.9684 17.9679 42.9839 17.8163 42.9537C17.6648 42.9236 17.5256 42.8492 17.4163 42.7399C17.3071 42.6307 17.2327 42.4915 17.2025 42.3399C17.1724 42.1884 17.1878 42.0313 17.247 41.8885C17.3061 41.7458 17.4062 41.6238 17.5347 41.5379C17.6632 41.4521 17.8142 41.4062 17.9688 41.4062C18.176 41.4062 18.3747 41.4886 18.5212 41.6351C18.6677 41.7816 18.75 41.9803 18.75 42.1875Z" fill="#FFBB01"/>
</svg>
