<svg width="1195" height="573" viewBox="0 0 1195 573" fill="none" xmlns="http://www.w3.org/2000/svg">
<g opacity="0.6">
<circle cx="1050.07" cy="289.707" r="24.5" transform="rotate(-177.304 1050.07 289.707)" fill="#FFCC31"/>
<circle cx="1054.5" cy="72.5004" r="36" stroke="#FFCC31" stroke-width="7"/>
<circle cx="1068.23" cy="361.14" r="13" transform="rotate(-177.304 1068.23 361.14)" fill="#72A3DD"/>
<ellipse cx="1000.99" cy="332.946" rx="9.5" ry="9" transform="rotate(-177.304 1000.99 332.946)" fill="#834C8F"/>
<ellipse cx="1008.62" cy="383.361" rx="9.5" ry="9" transform="rotate(-177.304 1008.62 383.361)" fill="#FFCC31"/>
<circle cx="1020.66" cy="136.299" r="22.1441" transform="rotate(-177.304 1020.66 136.299)" stroke="#72A3DD" stroke-width="6"/>
<circle cx="972.027" cy="62.0276" r="18.1919" transform="rotate(-177.304 972.027 62.0276)" fill="#834C8F"/>
<circle cx="529.657" cy="146.657" r="24.5" transform="rotate(21.0166 529.657 146.657)" fill="#834C8F"/>
<circle cx="526.553" cy="90.5621" r="13" transform="rotate(21.0166 526.553 90.5621)" fill="#FFCC31"/>
<ellipse cx="581.53" cy="138.466" rx="9.5" ry="9" transform="rotate(21.0166 581.53 138.466)" fill="#72A3DD"/>
<ellipse cx="590.127" cy="88.2056" rx="9.5" ry="9" transform="rotate(21.0166 590.127 88.2056)" fill="#FFCC31"/>
<circle cx="563.471" cy="256.471" r="29" transform="rotate(21.0166 563.471 256.471)" fill="#FFCC31"/>
<circle cx="400.471" cy="373.471" r="28.5" transform="rotate(21.0166 400.471 373.471)" stroke="#FFCC31"/>
<circle cx="440.259" cy="324.015" r="20.596" transform="rotate(21.0166 440.259 324.015)" stroke="#72A3DD"/>
</g>
<circle cx="509.749" cy="414.748" r="12.6009" transform="rotate(-177.304 509.749 414.748)" stroke="#834C8F" stroke-opacity="0.41" stroke-width="3"/>
<circle cx="688.881" cy="470.881" r="9.44726" transform="rotate(-177.304 688.881 470.881)" fill="#72A3DD" fill-opacity="0.6"/>
<circle cx="551.179" cy="490.179" r="9.73205" transform="rotate(-177.304 551.179 490.179)" fill="#FFCC31" fill-opacity="0.6"/>
<g opacity="0.6">
<circle cx="16" cy="36" r="16" fill="#FFCC31"/>
<circle cx="47.5" cy="96.5" r="15.5" fill="#834C8F"/>
<circle cx="57" cy="132" r="9.5" stroke="#72A3DD" stroke-width="3"/>
<circle cx="36" cy="112" r="9.5" stroke="#72A3DD" stroke-width="3"/>
<circle cx="74.5" cy="39.5" r="16.5" fill="#72A3DD"/>
<circle cx="96.5" cy="84.5" r="10" stroke="#FFCC31"/>
</g>
<g opacity="0.6">
<circle cx="79.5001" cy="550.5" r="15.5" transform="rotate(-90 79.5001 550.5)" fill="#834C8F"/>
<circle cx="115" cy="541" r="9.5" transform="rotate(-90 115 541)" stroke="#72A3DD" stroke-width="3"/>
<circle cx="95.0001" cy="562" r="9.5" transform="rotate(-90 95.0001 562)" stroke="#72A3DD" stroke-width="3"/>
<circle cx="22.5001" cy="523.5" r="16.5" transform="rotate(-90 22.5001 523.5)" fill="#72A3DD"/>
<circle cx="67.5001" cy="501.5" r="10" transform="rotate(-90 67.5001 501.5)" stroke="#FFCC31"/>
</g>
</svg>
