<svg width="410" height="410" viewBox="0 0 410 410" fill="none" xmlns="http://www.w3.org/2000/svg">
<path d="M228.929 205.01L404.596 29.343C411.376 22.795 411.564 11.991 405.016 5.21103C398.468 -1.56897 387.664 -1.75697 380.884 4.79103C380.742 4.92803 380.602 5.06803 380.464 5.21103L204.796 180.878L29.129 5.21003C22.349 -1.33797 11.545 -1.14997 4.99701 5.63003C-1.39099 12.244 -1.39099 22.729 4.99701 29.343L180.664 205.01L4.99701 380.677C-1.66599 387.341 -1.66599 398.145 4.99701 404.809C11.661 411.471 22.465 411.471 29.129 404.809L204.796 229.142L380.463 404.809C387.243 411.357 398.047 411.169 404.595 404.389C410.982 397.775 410.982 387.29 404.595 380.677L228.929 205.01Z" fill="white"/>
</svg>
