<svg width="384" height="384" viewBox="0 0 384 384" fill="none" xmlns="http://www.w3.org/2000/svg">
<path d="M370.458 208H72.5417C65.0666 208 59 200.832 59 192C59 183.168 65.0666 176 72.5417 176H370.458C377.933 176 384 183.168 384 192C384 200.832 377.933 208 370.458 208Z" fill="white"/>
<path d="M368 85H16C7.16797 85 0 77.832 0 69C0 60.168 7.16797 53 16 53H368C376.832 53 384 60.168 384 69C384 77.832 376.832 85 368 85Z" fill="white"/>
<path d="M373.375 331H139.625C133.76 331 129 323.832 129 315C129 306.168 133.76 299 139.625 299H373.375C379.24 299 384 306.168 384 315C384 323.832 379.24 331 373.375 331Z" fill="white"/>
</svg>
