<svg width="40" height="40" viewBox="0 0 40 40" fill="none" xmlns="http://www.w3.org/2000/svg">
<circle cx="20" cy="20" r="19.5" stroke="#FFCC31"/>
<g clip-path="url(#clip0)">
<path d="M19.1212 25.3635L10.1583 16.4005C9.94724 16.1895 9.94724 15.851 10.1583 15.64C10.3693 15.429 10.7078 15.429 10.9188 15.64L19.4995 24.2207L28.0802 15.64C28.2912 15.429 28.6297 15.429 28.8407 15.64C28.9443 15.7435 29 15.8829 29 16.0183C29 16.1536 28.9482 16.293 28.8407 16.3965L19.8778 25.3595C19.6707 25.5705 19.3283 25.5705 19.1212 25.3635Z" fill="#FFCC31"/>
</g>
<defs>
<clipPath id="clip0">
<rect width="19" height="19" transform="matrix(-4.37114e-08 1 1 4.37114e-08 10 11)" fill="white"/>
</clipPath>
</defs>
</svg>
