<svg width="20" height="13" viewBox="0 0 20 13" fill="none" xmlns="http://www.w3.org/2000/svg">
<path d="M17.8023 8.75452L17.7915 8.74445C17.6207 8.58683 17.0977 8.0778 16.9213 7.85532C16.7142 7.57776 16.762 7.39588 16.9171 7.12336C17.1132 6.77897 17.5061 6.25071 17.9219 5.69132C19.2537 3.90024 20.1136 2.66031 19.9366 1.77957L19.8412 1.30914L14.9228 1.31128C14.9056 1.35766 14.6489 2.48514 13.5658 4.405C12.7805 5.79706 12.2653 6.23438 12.0839 6.31159L12.0558 6.30304C11.9968 6.23011 11.8936 6.03327 11.8512 5.52591C11.807 4.99445 11.8462 4.35098 11.8842 3.72873C11.9286 2.99905 11.9669 2.36887 11.8752 1.91797L11.7258 1.18341C11.5453 1.15457 10.8844 0.899594 9.04314 0.880216C7.44905 0.863889 6.98075 1.09414 6.7508 1.29709L5.99015 1.96832L6.95161 2.29181C7.31752 2.41495 7.43898 2.55701 7.53862 3.2612C7.60362 3.72019 7.63765 4.49152 7.56746 5.18015C7.46659 6.16755 7.22474 6.35126 7.21223 6.36103C7.17057 6.34684 6.81733 6.19227 6.20408 4.89572C5.77867 3.99652 5.40574 2.93283 5.13322 2.15616C4.82133 1.26672 4.87748 1.45608 4.71925 1.03586L-0.0390625 1.0357L0.26886 1.83221C1.55258 5.15604 2.73041 7.75171 4.30665 9.61604C6.04814 11.6758 8.21245 12.7543 11.1278 12.7543H11.7137V12.1684C11.7137 11.6206 11.7591 11.2261 11.8562 10.9271C11.9156 10.7449 11.9945 10.5943 12.0773 10.4363C12.2003 10.2038 12.3206 10.1042 12.3862 10.0894C12.4457 10.0758 12.5504 10.1194 12.6663 10.2059C12.9993 10.4542 13.2636 10.7804 13.5434 11.1259C13.9472 11.6244 14.3646 12.1397 15.027 12.4771C15.389 12.6614 16.0524 12.7545 16.4176 12.7545C16.5142 12.7545 19.9567 12.7543 19.961 12.7543L19.9358 12.1443C19.8983 11.2321 19.1803 10.0915 17.8023 8.75452ZM16.4403 11.5824H16.4308C16.1791 11.5866 15.6986 11.504 15.5588 11.4329C15.1184 11.2086 14.8107 10.8285 14.4541 10.3884C14.1411 10.0019 13.8175 9.6023 13.3669 9.26646C13.0025 8.9947 12.6715 8.9152 12.4088 8.9152C12.3038 8.9152 12.2095 8.92786 12.1286 8.94617C11.8236 9.01484 11.3873 9.23426 11.0405 9.89024C10.9427 10.0769 10.8318 10.2882 10.7419 10.5647C10.6478 10.854 10.5892 11.1755 10.5612 11.5666C8.36427 11.4418 6.64994 10.5726 5.20158 8.8595C3.85499 7.26664 2.79557 5.0387 1.67359 2.20712C1.75476 2.20712 3.78892 2.20743 3.909 2.20743C3.94578 2.31073 3.98545 2.42395 4.02756 2.54388C4.3213 3.38174 4.72367 4.52905 5.19776 5.50745C5.87663 6.90851 6.49659 7.53336 7.20781 7.53336C7.56288 7.53336 7.88133 7.38291 8.12867 7.09803C8.48131 6.69199 8.68608 6.02182 8.75474 5.04908C8.80891 4.28201 8.75856 3.51801 8.69905 3.09702C8.64992 2.75064 8.57988 2.38702 8.40898 2.06125C9.13728 2.02844 10.1125 2.08032 10.7303 2.16897C10.7865 2.47476 10.7498 3.07581 10.7144 3.65732C10.6288 5.06205 10.5405 6.51163 11.284 7.18989C11.4148 7.30921 11.5535 7.37314 11.5575 7.37574L11.9359 7.49186C12.0819 7.44684 12.9277 7.87592 14.5293 5.08097C15.0424 4.18543 15.5202 3.15347 15.7775 2.47949C16.3741 2.47827 18.4067 2.48056 18.6455 2.48086C18.3072 3.22534 17.5055 4.2872 16.9815 4.99201C16.5247 5.60633 16.1302 6.13688 15.8988 6.54337C15.4688 7.29853 15.5411 7.97159 15.9889 8.56531L15.996 8.57447C16.2459 8.89262 16.8631 9.48161 16.9911 9.60032C17.9186 10.5007 18.3655 11.1476 18.5782 11.5823H16.4403V11.5824Z" fill="white"/>
</svg>
