<svg width="20" height="21" viewBox="0 0 20 21" fill="none" xmlns="http://www.w3.org/2000/svg">
<g clip-path="url(#clip0)">
<path d="M4.83719 19.3703C6.38245 20.3001 8.14926 20.7903 9.9646 20.7903C15.4655 20.7903 20 16.3014 20 10.7938C20 5.29251 15.472 0.797424 9.9646 0.797424C4.47403 0.797424 0.00717164 5.28183 0.00717164 10.7938C0.00717164 12.6334 0.497437 14.4136 1.42715 15.9601L0 20.7974L4.83719 19.3703ZM1.17874 10.7938C1.17874 5.92773 5.12009 1.96884 9.9646 1.96884C14.8521 1.96884 18.8286 5.92773 18.8286 10.7938C18.8286 15.6599 14.8521 19.6187 9.9646 19.6187C8.28278 19.6187 6.64841 19.1423 5.23865 18.2408L5.01343 18.0969L1.73264 19.0649L2.7005 15.784L2.55661 15.5589C1.65512 14.1489 1.17874 12.5012 1.17874 10.7938Z" fill="white"/>
<path d="M4.86828 8.95187C5.06176 9.96795 5.6361 11.9223 7.30831 13.5945C8.98052 15.2667 10.9349 15.8412 11.9511 16.0347C13.1147 16.2562 14.8224 16.2897 15.6569 15.4552L16.1221 14.9899C16.3569 14.7551 16.4863 14.4427 16.4863 14.1106C16.4863 13.7784 16.3569 13.4662 16.1221 13.2313L14.2616 11.3708C14.0266 11.1359 13.7144 11.0066 13.3822 11.0066C13.05 11.0066 12.7378 11.1359 12.5029 11.3708L12.0378 11.8359C11.7537 12.12 11.2173 12.1213 10.9311 11.8394L9.07528 9.90585C9.07253 9.90295 9.06979 9.90005 9.06689 9.8973C8.78231 9.61272 8.78231 9.14962 9.06689 8.86504L9.53198 8.39996C10.0181 7.91381 10.0181 7.12722 9.53198 6.64123L7.67147 4.78072C7.1867 4.29595 6.39782 4.29595 5.9129 4.78072L5.44781 5.24596V5.24581C4.78176 5.91201 4.55975 7.33199 4.86828 8.95187ZM6.27621 6.07436C6.76449 5.59722 6.7384 5.58807 6.79226 5.58807C6.81072 5.58807 6.82919 5.59509 6.84322 5.60912C8.80367 7.5801 8.72494 7.46429 8.72494 7.52074C8.72494 7.54043 8.71777 7.55767 8.70388 7.57171L8.23864 8.0368C7.49783 8.77761 7.49493 9.9768 8.23391 10.721L10.0908 12.6558C10.0937 12.6585 10.0964 12.6614 10.0993 12.6643C10.84 13.405 12.1231 13.4074 12.8662 12.6643L13.3313 12.1992C13.3593 12.1712 13.4051 12.1712 13.4332 12.1992C15.3936 14.1701 15.3149 14.0543 15.3149 14.1107C15.3149 14.1305 15.3077 14.1476 15.2938 14.1617L14.8286 14.6268C14.5099 14.9455 13.4945 15.1363 12.1702 14.884C11.2864 14.7156 9.58706 14.2166 8.13671 12.7663C6.68636 11.3159 6.1874 9.61654 6.0191 8.73275C5.76672 7.40844 5.95745 6.39297 6.27621 6.07436Z" fill="white"/>
</g>
<defs>
<clipPath id="clip0">
<rect y="0.797424" width="20" height="20" fill="white"/>
</clipPath>
</defs>
</svg>
